<?xml version="1.0" standalone="no"?>
<!DOCTYPE svg PUBLIC "-//W3C//DTD SVG 20010904//EN"
 "http://www.w3.org/TR/2001/REC-SVG-20010904/DTD/svg10.dtd">
<svg version="1.0" xmlns="http://www.w3.org/2000/svg"
 width="860.000000pt" height="860.000000pt" viewBox="0 0 860.000000 860.000000"
 preserveAspectRatio="xMidYMid meet">
<metadata>
Created by potrace 1.14, written by Peter Selinger 2001-2017
</metadata>
<g transform="translate(0.000000,860.000000) scale(0.100000,-0.100000)"
fill="#000000" stroke="none">
<path d="M3408 6084 c-2 -1 -50 -4 -106 -5 -233 -4 -406 -75 -560 -231 -166
-168 -219 -300 -231 -578 -9 -198 -6 -2040 4 -2090 37 -202 95 -314 231 -452
84 -85 168 -140 270 -177 152 -56 160 -56 1269 -56 561 0 1050 3 1087 7 205
21 351 92 496 240 128 130 179 235 218 448 9 49 12 1923 4 2095 -13 262 -73
407 -232 563 -91 89 -176 146 -271 180 -74 27 -110 36 -202 49 -35 5 -1972 12
-1977 7z m871 -435 c42 -41 42 -89 2 -130 -39 -38 -80 -39 -123 0 -44 39 -44
93 1 133 42 38 81 37 120 -3z m-365 -112 c69 -32 116 -75 150 -138 24 -43 29
-66 31 -133 2 -47 -3 -101 -11 -127 -18 -60 -86 -136 -156 -174 -48 -27 -62
-30 -143 -30 -73 1 -98 5 -133 23 -147 77 -213 230 -167 387 24 83 67 125 129
125 39 0 50 5 73 31 65 73 124 83 227 36z m939 18 c74 -19 151 -59 171 -87 25
-36 20 -85 -12 -118 -24 -23 -40 -29 -103 -35 -192 -19 -313 -73 -486 -215
-74 -62 -144 -50 -168 28 -8 26 17 117 50 183 54 106 185 212 303 244 65 18
176 18 245 0z m385 -400 c138 -33 243 -118 309 -253 38 -75 38 -77 38 -197 0
-109 -2 -125 -27 -177 -61 -131 -121 -188 -197 -188 -85 0 -141 56 -141 140 1
25 7 56 15 70 24 42 19 53 -17 34 -69 -36 -131 -125 -144 -205 -10 -59 -42
-89 -94 -89 -129 0 -285 174 -259 289 9 42 26 56 76 66 77 14 143 57 196 126
39 51 35 61 -15 39 -81 -37 -156 -17 -198 52 -51 83 8 191 137 254 107 53 210
65 321 39z m-1910 -39 c42 -21 57 -44 92 -136 102 -268 251 -437 502 -570 50
-26 61 -40 52 -64 -20 -53 -276 -70 -414 -27 -159 50 -302 174 -374 326 -45
93 -59 160 -60 276 0 78 4 102 20 130 41 69 120 97 182 65z m1054 -290 c134
-64 215 -198 201 -333 -6 -65 -28 -107 -75 -147 -133 -114 -367 -37 -459 152
-18 37 -23 64 -24 128 0 72 3 85 30 130 23 37 44 56 85 77 49 26 62 28 122 23
41 -3 86 -14 120 -30z m-1285 -303 c39 -18 73 -65 73 -101 0 -64 -63 -132
-123 -132 -64 0 -127 62 -127 125 0 42 34 93 73 110 42 19 62 18 104 -2z
m2494 -452 c15 -7 35 -31 44 -52 29 -63 10 -145 -71 -319 -113 -240 -273 -425
-499 -577 -120 -80 -317 -165 -445 -192 -30 -6 -66 -14 -80 -17 -43 -9 -342
-12 -420 -3 -104 11 -132 17 -240 51 -306 97 -578 309 -762 594 -43 67 -94
174 -126 265 -47 134 -47 173 5 229 l36 41 1266 -3 c1046 -2 1271 -5 1292 -17z"/>
</g>
</svg>
